<?xml version="1.0" encoding="UTF-8" standalone="no"?>
<!DOCTYPE svg PUBLIC "-//W3C//DTD SVG 1.1//EN" "http://www.w3.org/Graphics/SVG/1.1/DTD/svg11.dtd">
<svg width="100%" height="100%" viewBox="0 0 1182 1772" version="1.1" xmlns="http://www.w3.org/2000/svg" xmlns:xlink="http://www.w3.org/1999/xlink" xml:space="preserve" xmlns:serif="http://www.serif.com/" style="fill-rule:evenodd;clip-rule:evenodd;stroke-linejoin:round;stroke-miterlimit:1.5;">
    <g id="Layer1">
        <path d="M0,177.165L1181.1,177.165" style="fill:none;stroke:rgb(255,128,0);stroke-width:8.33px;"/>
    </g>
    <g id="Infinity-" serif:id="Infinity!" opacity="0.5">
        <path d="M667.077,1087.11L885.827,649.606L1104.58,1087.11L667.077,1087.11Z" style="fill:rgb(0,255,23);"/>
        <path d="M885.827,1564.96L885.827,649.606L590.551,561.024L295.276,649.606L295.276,1564.96L590.551,1653.54L885.827,1564.96L885.827,999.606" style="fill:none;stroke:rgb(0,255,23);stroke-width:145.83px;"/>
    </g>
    <g id="Control-" serif:id="Control!">
        <g transform="matrix(1,0,0,1,-71.7133,-4.54308)">
            <text x="986.484px" y="1309.89px" style="font-family:'Sylfaen', sans-serif;font-size:29.167px;">To Data Directory...</text>
        </g>
        <g transform="matrix(1,0,0,1,-71.7133,172.622)">
            <text x="986.484px" y="1309.89px" style="font-family:'Sylfaen', sans-serif;font-size:29.167px;fill:rgb(0,0,255);">To Web Server...</text>
        </g>
        <g transform="matrix(1,0,0,1,-27.6159,19.9993)">
            <text x="780.252px" y="940.934px" style="font-family:'Sylfaen', sans-serif;font-size:50px;">Repeat Until</text>
            <text x="829.031px" y="990.934px" style="font-family:'Sylfaen', sans-serif;font-size:50px;">Stopped</text>
        </g>
        <g transform="matrix(1,0,0,1,-15.2995,-34.6986)">
            <text x="19.188px" y="241.7px" style="font-family:'Sylfaen', sans-serif;font-size:29.167px;fill:rgb(255,128,0);">All Below Are</text>
            <text x="19.188px" y="270.867px" style="font-family:'Sylfaen', sans-serif;font-size:29.167px;fill:rgb(255,128,0);">Automatically</text>
            <text x="19.188px" y="300.034px" style="font-family:'Sylfaen', sans-serif;font-size:29.167px;fill:rgb(255,128,0);">Executed</text>
        </g>
    </g>
    <g id="Arrows-" serif:id="Arrows!">
        <path d="M219.193,388.386L206.693,413.386L194.193,388.386L219.193,388.386Z"/>
        <path d="M206.693,118.11L206.693,393.386" style="fill:none;stroke:black;stroke-width:8.33px;stroke-linecap:round;"/>
        <path d="M603.051,211.22L590.551,236.22L578.051,211.22L603.051,211.22Z"/>
        <path d="M590.551,118.11L590.551,216.22" style="fill:none;stroke:black;stroke-width:8.33px;stroke-linecap:round;"/>
        <path d="M898.327,388.386L885.827,413.386L873.327,388.386L898.327,388.386Z"/>
        <path d="M885.827,118.11L885.827,393.386" style="fill:none;stroke:black;stroke-width:8.33px;stroke-linecap:round;"/>
        <path d="M425.886,388.386L413.386,413.386L400.886,388.386L425.886,388.386Z"/>
        <path d="M413.386,354.331L413.386,393.386" style="fill:none;stroke:black;stroke-width:8.33px;stroke-linecap:round;"/>
        <path d="M337.303,624.606L324.803,649.606L312.303,624.606L337.303,624.606Z"/>
        <path d="M324.803,472.441L324.803,629.606" style="fill:none;stroke:black;stroke-width:8.33px;stroke-linecap:round;"/>
        <path d="M337.303,742.717L324.803,767.717L312.303,742.717L337.303,742.717Z"/>
        <path d="M324.803,708.661L324.803,747.717" style="fill:none;stroke:black;stroke-width:8.33px;stroke-linecap:round;"/>
        <path d="M337.303,860.827L324.803,885.827L312.303,860.827L337.303,860.827Z"/>
        <path d="M324.803,826.772L324.803,865.827" style="fill:none;stroke:black;stroke-width:8.33px;stroke-linecap:round;"/>
        <path d="M337.303,978.937L324.803,1003.94L312.303,978.937L337.303,978.937Z"/>
        <path d="M324.803,944.882L324.803,983.937" style="fill:none;stroke:black;stroke-width:8.33px;stroke-linecap:round;"/>
        <path d="M337.303,1097.05L324.803,1122.05L312.303,1097.05L337.303,1097.05Z"/>
        <path d="M324.803,1062.99L324.803,1102.05" style="fill:none;stroke:black;stroke-width:8.33px;stroke-linecap:round;"/>
        <path d="M278.248,1451.38L265.748,1476.38L253.248,1451.38L278.248,1451.38Z"/>
        <path d="M265.748,1240.16L265.748,1456.38" style="fill:none;stroke:black;stroke-width:8.33px;stroke-linecap:round;"/>
        <path d="M662.106,1274.21L649.606,1299.21L637.106,1274.21L662.106,1274.21Z"/>
        <path d="M590.551,797.244L649.606,856.299L649.606,1279.21" style="fill:none;stroke:black;stroke-width:8.33px;stroke-linecap:round;"/>
        <path d="M662.106,1274.21L649.606,1299.21L637.106,1274.21L662.106,1274.21Z"/>
        <path d="M590.551,915.354L649.606,974.409L649.606,1279.21" style="fill:none;stroke:black;stroke-width:8.33px;stroke-linecap:round;"/>
        <path d="M662.106,1274.21L649.606,1299.21L637.106,1274.21L662.106,1274.21Z"/>
        <path d="M590.551,1033.46L649.606,1092.52L649.606,1279.21" style="fill:none;stroke:black;stroke-width:8.33px;stroke-linecap:round;"/>
        <path d="M662.106,1274.21L649.606,1299.21L637.106,1274.21L662.106,1274.21Z"/>
        <path d="M590.551,1181.1L649.606,1240.16L649.606,1279.21" style="fill:none;stroke:black;stroke-width:8.33px;stroke-linecap:round;"/>
        <g transform="matrix(0.8,0,0,1,177.165,0)">
            <g transform="matrix(1.25,-0,-0,1,-221.457,0)">
                <path d="M1097.05,1316.24L1122.05,1328.74L1097.05,1341.24L1097.05,1316.24Z"/>
                <path d="M885.827,1328.74L1102.05,1328.74" style="fill:none;stroke:black;stroke-width:8.33px;stroke-linecap:round;stroke-dasharray:25,25,0,0;"/>
            </g>
        </g>
        <g transform="matrix(0.8,0,0,1,177.165,0)">
            <path d="M885.827,1505.91L1181.1,1505.91" style="fill:none;"/>
            <g transform="matrix(1.25,-0,-0,1,-221.457,0)">
                <path d="M1097.05,1493.41L1122.05,1505.91L1097.05,1518.41L1097.05,1493.41Z" style="fill:rgb(0,0,255);"/>
                <path d="M885.827,1505.91L1102.05,1505.91" style="fill:none;stroke:rgb(0,0,255);stroke-width:8.33px;stroke-linecap:round;stroke-dasharray:25,25,0,0;"/>
            </g>
        </g>
        <path d="M1075.49,683.661L1062.99,708.661L1050.49,683.661L1075.49,683.661Z"/>
        <path d="M1062.99,118.11L1062.99,688.661" style="fill:none;stroke:black;stroke-width:8.33px;"/>
    </g>
    <g id="Stop-Breakpoint" serif:id="Stop Breakpoint" transform="matrix(1,0,0,1,-59.0551,354.331)">
        <g transform="matrix(0.8,0,0,1,661.417,295.276)">
            <rect x="59.055" y="59.055" width="590.551" height="59.055" style="fill:rgb(255,119,119);stroke:black;stroke-width:4.6px;stroke-linecap:round;"/>
        </g>
        <g transform="matrix(1,0,0,1,594.939,38.1309)">
            <text x="170.873px" y="362.364px" style="font-family:'Sylfaen', sans-serif;font-size:50px;">Stop Breakpoint</text>
        </g>
    </g>
    <g id="Update-Monitoring-Webpage" serif:id="Update Monitoring Webpage" transform="matrix(1,0,0,1,-531.496,1062.99)">
        <g transform="matrix(1.2,0,0,1,637.795,354.331)">
            <rect x="59.055" y="59.055" width="590.551" height="59.055" style="fill:white;stroke:black;stroke-width:3.77px;stroke-linecap:round;"/>
        </g>
        <g transform="matrix(1,0,0,1,594.939,97.186)">
            <text x="170.873px" y="362.364px" style="font-family:'Sylfaen', sans-serif;font-size:50px;">Update Monitoring Webpage</text>
        </g>
    </g>
    <g id="Write-Results-to-Disk" serif:id="Write Results to Disk" transform="matrix(1,0,0,1,-531.496,944.882)">
        <g transform="matrix(1,0,0,1,767.717,295.276)">
            <rect x="59.055" y="59.055" width="590.551" height="59.055" style="fill:white;stroke:black;stroke-width:4.17px;stroke-linecap:round;"/>
        </g>
        <g transform="matrix(1,0,0,1,714.466,38.7913)">
            <text x="170.873px" y="362.364px" style="font-family:'Sylfaen', sans-serif;font-size:50px;">Write Results to Disk</text>
        </g>
    </g>
    <g id="Update-Zeropoint-Database" serif:id="Update Zeropoint Database" transform="matrix(1,0,0,1,-649.606,885.827)">
        <g transform="matrix(0.9,0,0,2,655.512,118.11)">
            <rect x="59.055" y="59.055" width="590.551" height="59.055" style="fill:white;stroke:black;stroke-width:2.69px;stroke-linecap:round;"/>
        </g>
        <g transform="matrix(1,0,0,1,594.939,-74.7914)">
            <text x="170.873px" y="362.364px" style="font-family:'Sylfaen', sans-serif;font-size:50px;">Update Zero Point</text>
            <text x="170.873px" y="412.364px" style="font-family:'Sylfaen', sans-serif;font-size:50px;">Archive Database</text>
        </g>
    </g>
    <g id="Solve-Photometry" serif:id="Solve Photometry" transform="matrix(1,0,0,1,-649.606,649.606)">
        <g transform="matrix(0.9,0,0,1,655.512,295.276)">
            <rect x="59.055" y="59.055" width="590.551" height="59.055" style="fill:white;stroke:black;stroke-width:4.38px;stroke-linecap:round;"/>
        </g>
        <g transform="matrix(1,0,0,1,594.939,38.1309)">
            <text x="170.873px" y="362.364px" style="font-family:'Sylfaen', sans-serif;font-size:50px;">Solve Photometry</text>
        </g>
    </g>
    <g id="Solve-Astrometry" serif:id="Solve Astrometry" transform="matrix(1,0,0,1,-649.606,531.496)">
        <g transform="matrix(0.9,0,0,1,655.512,295.276)">
            <rect x="59.055" y="59.055" width="590.551" height="59.055" style="fill:white;stroke:black;stroke-width:4.38px;stroke-linecap:round;"/>
        </g>
        <g transform="matrix(1,0,0,1,594.939,38.1309)">
            <text x="170.873px" y="362.364px" style="font-family:'Sylfaen', sans-serif;font-size:50px;">Solve Astrometry</text>
        </g>
    </g>
    <g id="Preprocess-Images" serif:id="Preprocess Images" transform="matrix(1,0,0,1,-649.606,413.386)">
        <g transform="matrix(0.9,0,0,1,655.512,295.276)">
            <rect x="59.055" y="59.055" width="590.551" height="59.055" style="fill:white;stroke:black;stroke-width:4.38px;stroke-linecap:round;"/>
        </g>
        <g transform="matrix(1,0,0,1,594.939,38.1309)">
            <text x="170.873px" y="362.364px" style="font-family:'Sylfaen', sans-serif;font-size:50px;">Pre-process Image</text>
        </g>
    </g>
    <g id="Fetch-Recent-Image" serif:id="Fetch Recent Image" transform="matrix(1,0,0,1,-649.606,531.496)">
        <g transform="matrix(0.9,0,0,1,655.512,59.0551)">
            <rect x="59.055" y="59.055" width="590.551" height="59.055" style="fill:white;stroke:black;stroke-width:4.38px;stroke-linecap:round;"/>
        </g>
        <g transform="matrix(1,0,0,1,594.939,-198.09)">
            <text x="170.873px" y="362.364px" style="font-family:'Sylfaen', sans-serif;font-size:50px;">Fetch Recent Image</text>
        </g>
    </g>
    <g id="Automatic-Solving" serif:id="Automatic Solving" transform="matrix(1,0,0,1,-177.165,295.276)">
        <g transform="matrix(0.8,0,0,1,661.417,59.0551)">
            <rect x="59.055" y="59.055" width="590.551" height="59.055" style="fill:white;stroke:black;stroke-width:4.6px;stroke-linecap:round;"/>
        </g>
        <g transform="matrix(1,0,0,1,594.939,-198.09)">
            <text x="170.873px" y="362.364px" style="font-family:'Sylfaen', sans-serif;font-size:50px;">Automatic Solving</text>
        </g>
    </g>
    <g id="Data-Directory" serif:id="Data Directory" transform="matrix(1,0,0,1,-649.606,295.276)">
        <g transform="matrix(0.7,0,0,1,667.323,59.0551)">
            <rect x="59.055" y="59.055" width="590.551" height="59.055" style="fill:white;stroke:black;stroke-width:4.83px;stroke-linecap:round;"/>
        </g>
        <g transform="matrix(1,0,0,1,594.939,-198.09)">
            <text x="170.873px" y="362.364px" style="font-family:'Sylfaen', sans-serif;font-size:50px;">Data Directory</text>
        </g>
    </g>
    <g id="Continious-Images" serif:id="Continious Images" transform="matrix(1,0,0,1,-383.858,118.11)">
        <g transform="matrix(0.9,0,0,2,655.512,1.13687e-13)">
            <rect x="59.055" y="59.055" width="590.551" height="59.055" style="fill:white;stroke:black;stroke-width:2.69px;stroke-linecap:round;"/>
        </g>
        <g transform="matrix(1,0,0,1,594.939,-198.993)">
            <text x="170.873px" y="362.364px" style="font-family:'Sylfaen', sans-serif;font-size:50px;">Camera Controller:</text>
            <text x="170.873px" y="412.364px" style="font-family:'Sylfaen', sans-serif;font-size:50px;">Continuous Images</text>
        </g>
    </g>
    <g id="Trigger..." transform="matrix(1,0,0,1,354.331,-59.0551)">
        <g transform="matrix(1.1,0,0,1,53.1496,59.0551)">
            <rect x="59.055" y="59.055" width="590.551" height="59.055" style="fill:white;stroke:black;stroke-width:3.96px;stroke-linecap:round;"/>
        </g>
        <g transform="matrix(1,0,0,1,4.38807,-198.09)">
            <text x="170.873px" y="362.364px" style="font-family:'Sylfaen', sans-serif;font-size:50px;">Trigger...</text>
        </g>
    </g>
    <g id="Specify..." transform="matrix(1,0,0,1,-59.0551,-59.0551)">
        <g transform="matrix(0.5,0,0,1,88.5827,59.0551)">
            <rect x="59.055" y="59.055" width="590.551" height="59.055" style="fill:white;stroke:black;stroke-width:5.27px;stroke-linecap:round;"/>
        </g>
        <g transform="matrix(1,0,0,1,4.38807,-198.09)">
            <text x="170.873px" y="362.364px" style="font-family:'Sylfaen', sans-serif;font-size:50px;">Specify...</text>
        </g>
    </g>
</svg>
