<?xml version="1.0" encoding="UTF-8" standalone="no"?>
<!DOCTYPE svg PUBLIC "-//W3C//DTD SVG 1.1//EN" "http://www.w3.org/Graphics/SVG/1.1/DTD/svg11.dtd">
<svg width="100%" height="100%" viewBox="0 0 1182 1772" version="1.1" xmlns="http://www.w3.org/2000/svg" xmlns:xlink="http://www.w3.org/1999/xlink" xml:space="preserve" xmlns:serif="http://www.serif.com/" style="fill-rule:evenodd;clip-rule:evenodd;stroke-linejoin:round;stroke-miterlimit:1.5;">
    <g id="Control-" serif:id="Control!">
        <g transform="matrix(1,0,0,1,22.0034,527.46)">
            <text x="545.898px" y="1058.09px" style="font-family:'Sylfaen', sans-serif;font-size:29.167px;">and</text>
        </g>
        <g transform="matrix(1,0,0,1,31.1265,34.4258)">
            <text x="545.898px" y="1058.09px" style="font-family:'Sylfaen', sans-serif;font-size:29.167px;">or</text>
        </g>
    </g>
    <g id="Arrows-" serif:id="Arrows!">
        <g transform="matrix(1,0,0,0.833333,1.7053e-13,137.795)">
            <g transform="matrix(1,-0,-0,1.2,-1.7053e-13,-165.354)">
                <path d="M307.776,358.858L295.276,383.858L282.776,358.858L307.776,358.858Z"/>
                <path d="M295.276,236.22L295.276,363.858" style="fill:none;stroke:black;stroke-width:8.33px;"/>
            </g>
        </g>
        <g transform="matrix(1,0,0,1,1.7053e-13,88.5827)">
            <g transform="matrix(1,-0,-0,1,-1.7053e-13,-88.5827)">
                <path d="M839.272,358.858L826.772,383.858L814.272,358.858L839.272,358.858Z"/>
                <path d="M826.772,324.803L826.772,363.858" style="fill:none;stroke:black;stroke-width:8.33px;"/>
            </g>
        </g>
        <g transform="matrix(1,0,0,1,1.7053e-13,88.5827)">
            <g transform="matrix(1,-0,-0,1,-1.7053e-13,-88.5827)">
                <path d="M603.031,476.958L590.551,501.969L578.031,476.979L603.031,476.958Z"/>
                <path d="M590.502,442.913C590.502,442.913 590.52,464.837 590.535,481.969" style="fill:none;stroke:black;stroke-width:8.33px;"/>
            </g>
        </g>
        <g transform="matrix(1,0,0,1,5.25802e-13,118.11)">
            <g transform="matrix(1,-0,-0,1,-5.25802e-13,-118.11)">
                <path d="M839.272,595.079L826.772,620.079L814.272,595.079L839.272,595.079Z"/>
                <path d="M826.772,561.024L826.772,600.079" style="fill:none;stroke:black;stroke-width:8.33px;"/>
            </g>
        </g>
        <g transform="matrix(1,0,0,0.833333,5.25802e-13,196.85)">
            <g transform="matrix(1,-0,-0,1.2,-5.25802e-13,-236.22)">
                <path d="M307.776,713.189L295.276,738.189L282.776,713.189L307.776,713.189Z"/>
                <path d="M295.276,561.024L295.276,718.189" style="fill:none;stroke:black;stroke-width:8.33px;"/>
            </g>
        </g>
        <g transform="matrix(1,0,0,1,5.25802e-13,118.11)">
            <g transform="matrix(1,-0,-0,1,-5.25802e-13,-118.11)">
                <path d="M307.776,919.882L295.276,944.882L282.776,919.882L307.776,919.882Z"/>
                <path d="M295.276,797.244L295.276,924.882" style="fill:none;stroke:black;stroke-width:8.33px;"/>
            </g>
        </g>
        <g transform="matrix(1,0,0,1,5.25802e-13,118.11)">
            <g transform="matrix(1,-0,-0,1,-5.25802e-13,-118.11)">
                <path d="M839.272,919.882L826.772,944.882L814.272,919.882L839.272,919.882Z"/>
                <path d="M826.772,885.827L826.772,924.882" style="fill:none;stroke:black;stroke-width:8.33px;"/>
            </g>
        </g>
        <g transform="matrix(1,0,0,1,4.12115e-13,59.0551)">
            <g transform="matrix(1,-0,-0,1,-4.12115e-13,-59.0551)">
                <path d="M307.776,1156.1L295.276,1181.1L282.776,1156.1L307.776,1156.1Z"/>
                <path d="M590.551,1003.94L590.551,1062.99L295.276,1062.99L295.276,1161.1" style="fill:none;stroke:black;stroke-width:8.33px;"/>
            </g>
        </g>
        <g transform="matrix(1,0,0,1,4.12115e-13,118.11)">
            <g transform="matrix(1,-0,-0,1,-4.12115e-13,-118.11)">
                <path d="M307.776,1333.27L295.276,1358.27L282.776,1333.27L307.776,1333.27Z"/>
                <path d="M295.276,1299.21L295.276,1338.27" style="fill:none;stroke:black;stroke-width:8.33px;"/>
            </g>
        </g>
        <g transform="matrix(1,0,0,1,4.12115e-13,59.0551)">
            <g transform="matrix(1,-0,-0,1,-4.12115e-13,-59.0551)">
                <path d="M898.327,1097.05L885.827,1122.05L873.327,1097.05L898.327,1097.05Z"/>
                <path d="M590.551,1003.94L590.551,1062.99L885.827,1062.99L885.827,1102.05" style="fill:none;stroke:black;stroke-width:8.33px;"/>
            </g>
        </g>
        <g transform="matrix(1,0,0,1,4.12115e-13,118.11)">
            <g transform="matrix(1,-0,-0,1,-4.12115e-13,-118.11)">
                <path d="M898.327,1215.16L885.827,1240.16L873.327,1215.16L898.327,1215.16Z"/>
                <path d="M885.827,1181.1L885.827,1220.16" style="fill:none;stroke:black;stroke-width:8.33px;"/>
            </g>
        </g>
        <g transform="matrix(1,0,0,1,4.12115e-13,118.11)">
            <g transform="matrix(1,-0,-0,1,-4.12115e-13,-118.11)">
                <path d="M898.327,1333.27L885.827,1358.27L873.327,1333.27L898.327,1333.27Z"/>
                <path d="M885.827,1299.21L885.827,1338.27" style="fill:none;stroke:black;stroke-width:8.33px;"/>
            </g>
        </g>
        <g transform="matrix(1,0,0,1,4.12115e-13,118.11)">
            <g transform="matrix(1,-0,-0,1,-4.12115e-13,-118.11)">
                <path d="M307.776,1451.38L295.276,1476.38L282.776,1451.38L307.776,1451.38Z"/>
                <path d="M295.276,1417.32L295.276,1456.38" style="fill:none;stroke:black;stroke-width:8.33px;"/>
            </g>
        </g>
        <g transform="matrix(1,0,0,1,4.12115e-13,118.11)">
            <g transform="matrix(1,-0,-0,1,-4.12115e-13,-118.11)">
                <path d="M898.327,1451.38L885.827,1476.38L873.327,1451.38L898.327,1451.38Z"/>
                <path d="M885.827,1417.32L885.827,1456.38" style="fill:none;stroke:black;stroke-width:8.33px;"/>
            </g>
        </g>
        <g transform="matrix(1,0,0,1,4.12115e-13,59.0551)">
            <g transform="matrix(1,-0,-0,1,-4.12115e-13,-59.0551)">
                <path d="M898.327,1628.54L885.827,1653.54L873.327,1628.54L898.327,1628.54Z"/>
                <path d="M295.276,1535.43L295.276,1594.49L885.827,1594.49L885.827,1633.54" style="fill:none;stroke:black;stroke-width:8.33px;"/>
            </g>
        </g>
        <g transform="matrix(1,0,0,1,4.12115e-13,59.0551)">
            <g transform="matrix(1,-0,-0,1,-4.12115e-13,-59.0551)">
                <path d="M307.776,1628.54L295.276,1653.54L282.776,1628.54L307.776,1628.54Z"/>
                <path d="M885.827,1535.43L885.827,1594.49L295.276,1594.49L295.276,1633.54" style="fill:none;stroke:black;stroke-width:8.33px;"/>
            </g>
        </g>
        <path d="M603.031,152.155L590.551,177.165L578.031,152.176L603.031,152.155Z"/>
        <path d="M590.502,118.11C590.502,118.11 590.52,140.034 590.535,157.165" style="fill:none;stroke:black;stroke-width:8.33px;"/>
    </g>
    <g id="Telescope-Control-Software" serif:id="Telescope Control Software" transform="matrix(1,0,0,1,-0.0488281,1535.43)">
        <g transform="matrix(1.6,0,0,1,23.622,59.0551)">
            <rect x="59.055" y="59.055" width="590.551" height="59.055" style="fill:none;stroke:black;stroke-width:3.12px;stroke-linecap:round;"/>
        </g>
        <g transform="matrix(1,0,0,1,4.38807,-198.09)">
            <text x="170.873px" y="362.364px" style="font-family:'Sylfaen', sans-serif;font-size:50px;">Telescope Control Software: Update</text>
        </g>
    </g>
    <g id="Asteroid-Propagation" serif:id="Asteroid Propagation" transform="matrix(1,0,0,1,-59.0551,1062.99)">
        <g transform="matrix(0.8,0,0,2,70.8661,4.54747e-13)">
            <rect x="59.055" y="59.055" width="590.551" height="59.055" style="fill:none;stroke:black;stroke-width:2.74px;stroke-linecap:round;"/>
        </g>
        <g transform="matrix(1,0,0,1,6.29237,-198.993)">
            <text x="170.873px" y="362.364px" style="font-family:'Sylfaen', sans-serif;font-size:50px;">Asteroid Position</text>
            <text x="170.873px" y="412.364px" style="font-family:'Sylfaen', sans-serif;font-size:50px;">Propagation</text>
        </g>
    </g>
    <g id="Asterpod-On-Sky-Rates" serif:id="Asterpod On-Sky Rates" transform="matrix(1,0,0,1,531.496,1299.21)">
        <g transform="matrix(0.7,0,0,1,135.827,118.11)">
            <rect x="59.055" y="59.055" width="590.551" height="59.055" style="fill:none;stroke:black;stroke-width:4.83px;stroke-linecap:round;"/>
        </g>
        <g transform="matrix(1,0,0,1,65.3475,-133.846)">
            <text x="170.873px" y="362.364px" style="font-family:'Sylfaen', sans-serif;font-size:50px;">Asteroid Rates</text>
        </g>
    </g>
    <g id="Asterpod-On-Sky-Future-Position" serif:id="Asterpod On-Sky Future Position" transform="matrix(1,0,0,1,-59.0551,1299.21)">
        <g transform="matrix(1,0,0,1,59.0551,118.11)">
            <rect x="59.055" y="59.055" width="590.551" height="59.055" style="fill:none;stroke:black;stroke-width:4.17px;stroke-linecap:round;"/>
        </g>
        <g transform="matrix(1,0,0,1,4.38807,-133.846)">
            <text x="170.873px" y="362.364px" style="font-family:'Sylfaen', sans-serif;font-size:50px;">Asteroid Future Position</text>
        </g>
    </g>
    <g id="Asteroid-On-Sky-Future-Track" serif:id="Asteroid On-Sky Future Track" transform="matrix(1,0,0,1,-0.0488281,1181.1)">
        <g transform="matrix(1.6,0,0,1,23.622,118.11)">
            <rect x="59.055" y="59.055" width="590.551" height="59.055" style="fill:none;stroke:black;stroke-width:3.12px;stroke-linecap:round;"/>
        </g>
        <g transform="matrix(1,0,0,1,4.38807,-139.034)">
            <text x="170.873px" y="362.364px" style="font-family:'Sylfaen', sans-serif;font-size:50px;">Asteroid On-Sky Future Track</text>
        </g>
    </g>
    <g id="Ephemeris" transform="matrix(1,0,0,1,531.496,1062.99)">
        <g transform="matrix(0.8,0,0,1,70.8661,118.11)">
            <rect x="59.055" y="59.055" width="590.551" height="59.055" style="fill:none;stroke:black;stroke-width:4.6px;stroke-linecap:round;"/>
        </g>
        <g transform="matrix(1,0,0,1,4.38807,-139.034)">
            <text x="170.873px" y="362.364px" style="font-family:'Sylfaen', sans-serif;font-size:50px;">Ephemeris</text>
        </g>
    </g>
    <g id="Orbital-Elements" serif:id="Orbital Elements" transform="matrix(1,0,0,1,531.496,944.882)">
        <g transform="matrix(0.8,0,0,1,70.8661,118.11)">
            <rect x="59.055" y="59.055" width="590.551" height="59.055" style="fill:none;stroke:black;stroke-width:4.6px;stroke-linecap:round;"/>
        </g>
        <g transform="matrix(1,0,0,1,4.38807,-139.034)">
            <text x="170.873px" y="362.364px" style="font-family:'Sylfaen', sans-serif;font-size:50px;">Orbital Elements</text>
        </g>
    </g>
    <g id="Historical-Observations" serif:id="Historical Observations" transform="matrix(1,0,0,1,413.386,708.661)">
        <g transform="matrix(1.00579,0,0,1,58.7129,59.0551)">
            <rect x="59.055" y="59.055" width="590.551" height="59.055" style="fill:none;stroke:black;stroke-width:4.15px;stroke-linecap:round;"/>
        </g>
        <g transform="matrix(1,0,0,1,4.38807,-198.09)">
            <text x="170.873px" y="362.364px" style="font-family:'Sylfaen', sans-serif;font-size:50px;">Historical Observations</text>
        </g>
    </g>
    <g id="Asteroid-On-sky-Position" serif:id="Asteroid On-sky Position" transform="matrix(1,0,0,1,-5.68434e-14,590.551)">
        <g transform="matrix(1.6,0,0,1,23.622,88.5827)">
            <rect x="59.055" y="59.055" width="590.551" height="59.055" style="fill:none;stroke:black;stroke-width:3.12px;stroke-linecap:round;"/>
        </g>
        <g transform="matrix(1,0,0,1,4.38807,-168.562)">
            <text x="170.873px" y="362.364px" style="font-family:'Sylfaen', sans-serif;font-size:50px;">Asteroid On-Sky Position</text>
        </g>
    </g>
    <g id="Asteroid-Observation-Records" serif:id="Asteroid Observation Records" transform="matrix(1,0,0,1,-0.0488281,826.772)">
        <g transform="matrix(1.6,0,0,1,23.622,59.0551)">
            <rect x="59.055" y="59.055" width="590.551" height="59.055" style="fill:none;stroke:black;stroke-width:3.12px;stroke-linecap:round;"/>
        </g>
        <g transform="matrix(1,0,0,1,4.38807,-198.09)">
            <text x="170.873px" y="362.364px" style="font-family:'Sylfaen', sans-serif;font-size:50px;">Asteroid Observation Record</text>
        </g>
    </g>
    <g id="Photometric-Solution" serif:id="Photometric Solution" transform="matrix(1,0,0,1,413.386,472.441)">
        <g transform="matrix(1,0,0,1,59.0551,88.5827)">
            <rect x="59.055" y="59.055" width="590.551" height="59.055" style="fill:none;stroke:black;stroke-width:4.17px;stroke-linecap:round;"/>
        </g>
        <g transform="matrix(1,0,0,1,4.38807,-168.562)">
            <text x="170.873px" y="362.364px" style="font-family:'Sylfaen', sans-serif;font-size:50px;">Photometric Solution</text>
        </g>
    </g>
    <g id="Astrometric-Solution" serif:id="Astrometric Solution" transform="matrix(1,0,0,1,-1.13687e-13,354.331)">
        <g transform="matrix(1.6,0,0,1,23.622,88.5827)">
            <rect x="59.055" y="59.055" width="590.551" height="59.055" style="fill:none;stroke:black;stroke-width:3.12px;stroke-linecap:round;"/>
        </g>
        <g transform="matrix(1,0,0,1,4.38807,-168.562)">
            <text x="170.873px" y="362.364px" style="font-family:'Sylfaen', sans-serif;font-size:50px;">Astrometric Solution</text>
        </g>
    </g>
    <g id="Asteroid-Location" serif:id="Asteroid Location" transform="matrix(1,0,0,1,-1.13687e-13,236.22)">
        <g transform="matrix(1.6,0,0,1,23.622,88.5827)">
            <rect x="59.055" y="59.055" width="590.551" height="59.055" style="fill:none;stroke:black;stroke-width:3.12px;stroke-linecap:round;"/>
        </g>
        <g transform="matrix(1,0,0,1,4.38807,-168.562)">
            <text x="170.873px" y="362.364px" style="font-family:'Sylfaen', sans-serif;font-size:50px;">Target Selector GUI: Asteroid Location</text>
        </g>
    </g>
    <g id="Previous-Image" serif:id="Previous Image" transform="matrix(1.05882,0,0,1,-218.851,118.11)">
        <g transform="matrix(0.944444,0,0,1,652.887,88.5827)">
            <rect x="59.055" y="59.055" width="590.551" height="59.055" style="fill:none;stroke:black;stroke-width:4.17px;stroke-linecap:round;"/>
        </g>
        <g transform="matrix(1,0,0,1,594.939,-168.562)">
            <text x="170.873px" y="362.364px" style="font-family:'Sylfaen', sans-serif;font-size:50px;">Previous Image</text>
        </g>
    </g>
    <g id="Take-Image" serif:id="Take Image" transform="matrix(1,0,0,1,-590.551,0)">
        <g transform="matrix(1.6,0,0,1,614.173,118.11)">
            <rect x="59.055" y="59.055" width="590.551" height="59.055" style="fill:none;stroke:black;stroke-width:3.12px;stroke-linecap:round;"/>
        </g>
        <g transform="matrix(1,0,0,1,594.939,-139.034)">
            <text x="170.873px" y="362.364px" style="font-family:'Sylfaen', sans-serif;font-size:50px;">Camera Controller: Take Image</text>
        </g>
    </g>
    <g id="Specify-Target-Name" serif:id="Specify Target Name" transform="matrix(1,0,0,1,-590.551,-118.11)">
        <g transform="matrix(1.6,0,0,1,614.173,118.11)">
            <rect x="59.055" y="59.055" width="590.551" height="59.055" style="fill:none;stroke:black;stroke-width:3.12px;stroke-linecap:round;"/>
        </g>
        <g transform="matrix(1,0,0,1,594.939,-139.034)">
            <text x="170.873px" y="362.364px" style="font-family:'Sylfaen', sans-serif;font-size:50px;">Specify New Target Name</text>
        </g>
    </g>
</svg>
