<?xml version="1.0" encoding="UTF-8" standalone="no"?>
<!DOCTYPE svg PUBLIC "-//W3C//DTD SVG 1.1//EN" "http://www.w3.org/Graphics/SVG/1.1/DTD/svg11.dtd">
<svg width="100%" height="100%" viewBox="0 0 2835 3544" version="1.1" xmlns="http://www.w3.org/2000/svg" xmlns:xlink="http://www.w3.org/1999/xlink" xml:space="preserve" xmlns:serif="http://www.serif.com/" style="fill-rule:evenodd;clip-rule:evenodd;stroke-linejoin:round;stroke-miterlimit:1.5;">
    <g id="Boxes-" serif:id="Boxes!">
        <g id="Solution">
            <g transform="matrix(1.01053,0,0,1,-2.98384,0)">
                <path d="M2527.56,188.976L283.465,188.976L283.465,3307.09L2527.56,3307.09L2527.56,1559.06L1919.78,1559.06L1919.78,1370.08L2527.56,1370.08L2527.56,188.976Z" style="fill:rgb(220,38,127);fill-opacity:0.1;stroke:rgb(220,38,127);stroke-width:8.29px;"/>
            </g>
            <g transform="matrix(1,0,0,1,406.39,-86.5874)">
                <text x="1788.56px" y="346.43px" style="font-family:'Sylfaen', sans-serif;font-size:50px;fill:rgb(220,38,127);">OpihiSolution</text>
            </g>
        </g>
        <g id="Legend" transform="matrix(1,0,0,1,-0.622559,248.031)">
            <g transform="matrix(1.1,0,0,0.575758,-197.803,1121.33)">
                <path d="M2456.69,2600.03C2456.69,2547 2434.16,2503.94 2406.39,2503.94L2034.55,2503.94C2006.79,2503.94 1984.25,2547 1984.25,2600.03L1984.25,3187.37C1984.25,3240.41 2006.79,3283.47 2034.55,3283.47L2406.39,3283.47C2434.16,3283.47 2456.69,3240.41 2456.69,3187.37L2456.69,2600.03Z" style="fill-opacity:0.3;stroke:rgb(51,51,51);stroke-width:9.49px;stroke-dasharray:37.97,18.98,18.98,18.98;"/>
            </g>
            <g transform="matrix(1,0,0,1,37.9117,-26.3884)">
                <text x="2088.7px" y="2948.84px" style="font-family:'Sylfaen', sans-serif;font-size:41.667px;">API Interactions</text>
            </g>
            <g transform="matrix(1,0,0,1,48.3824,-42.5266)">
                <text x="2125.47px" y="2912.01px" style="font-family:'Sylfaen', sans-serif;font-size:41.667px;">Automatic Mode</text>
            </g>
            <g transform="matrix(1,0,0,1,77.2986,-42.7645)">
                <text x="2095.55px" y="2865.01px" style="font-family:'Sylfaen', sans-serif;font-size:41.667px;">Manual Mode</text>
            </g>
            <g transform="matrix(1,0,0,1,47.626,-31.2508)">
                <text x="2077.39px" y="2806.25px" style="font-family:'Sylfaen', sans-serif;font-size:41.667px;">GUI Interactions</text>
            </g>
            <g transform="matrix(1,0,0,1,99.4834,-147.132)">
                <text x="2068.71px" y="2769.05px" style="font-family:'Sylfaen', sans-serif;font-size:50px;">Legend</text>
            </g>
            <g transform="matrix(1,0,0,1,92.6759,-102.962)">
                <text x="2032.38px" y="2773.32px" style="font-family:'Sylfaen', sans-serif;font-size:41.667px;">OpihiExarata Flow</text>
            </g>
            <g transform="matrix(1,0,0,1,92.6759,-55.7179)">
                <text x="2032.38px" y="2773.32px" style="font-family:'Sylfaen', sans-serif;font-size:41.667px;">External Data Flow</text>
            </g>
        </g>
    </g>
    <g id="Control-" serif:id="Control!">
        <g transform="matrix(1,0,0,1,155.661,-51.1276)">
            <text x="533.676px" y="461.746px" style="font-family:'Sylfaen', sans-serif;font-size:41.667px;">or</text>
        </g>
        <g transform="matrix(1,0,0,1,473.406,2496.81)">
            <text x="533.676px" y="461.746px" style="font-family:'Sylfaen', sans-serif;font-size:41.667px;">and</text>
        </g>
        <g transform="matrix(1,0,0,1,473.406,2780.27)">
            <text x="533.676px" y="461.746px" style="font-family:'Sylfaen', sans-serif;font-size:41.667px;">and</text>
        </g>
    </g>
    <g id="Arrows-" serif:id="Arrows!" transform="matrix(1,0,0,1,177.165,17.7165)">
        <g id="GUI-Controls" serif:id="GUI Controls" transform="matrix(1,0,0,1,-177.165,-17.7165)">
            <g opacity="0.75">
                <path d="M188.976,188.976L188.976,94.488L283.465,94.488" style="fill:none;stroke:rgb(254,97,0);stroke-width:4.17px;stroke-linecap:round;"/>
                <g id="Asteroid">
                    <path d="M213.001,661.417L330.709,661.417" style="fill:none;stroke:rgb(254,97,0);stroke-width:4.17px;stroke-linecap:round;"/>
                </g>
                <g id="Auto">
                    <path d="M1700.79,1039.37L330.709,1039.37L330.709,1322.84L236.22,1322.84" style="fill:none;stroke:rgb(255,176,0);stroke-width:4.17px;stroke-linecap:round;"/>
                    <path d="M1370.08,944.882L1370.08,1039.37L330.709,1039.37L330.709,1322.84L236.22,1322.84" style="fill:none;stroke:rgb(255,176,0);stroke-width:4.17px;stroke-linecap:round;"/>
                    <path d="M1606.3,1417.32L1606.3,1039.37L330.709,1039.37L330.709,1322.84L213.001,1322.84" style="fill:none;stroke:rgb(255,176,0);stroke-width:4.17px;stroke-linecap:round;"/>
                    <g transform="matrix(1,0,0,1,0,47.2441)">
                        <path d="M2007.87,3047.24L2102.36,3047.24" style="fill:none;stroke:rgb(255,176,0);stroke-width:4.17px;"/>
                    </g>
                </g>
                <g id="Manual">
                    <path d="M1181.1,1937.01L236.22,1937.01" style="fill:none;stroke:rgb(254,97,0);stroke-width:4.17px;stroke-linecap:round;"/>
                    <path d="M1181.1,2314.96L1181.1,2362.2L944.882,2362.2L944.882,1937.01L236.22,1937.01" style="fill:none;stroke:rgb(254,97,0);stroke-width:4.17px;stroke-linecap:round;"/>
                    <path d="M1275.59,2409.45L1275.59,2362.2L944.882,2362.2L944.882,1937.01L236.22,1937.01" style="fill:none;stroke:rgb(254,97,0);stroke-width:4.17px;stroke-linecap:round;"/>
                    <path d="M944.882,2409.45L944.882,1937.01L236.22,1937.01" style="fill:none;stroke:rgb(254,97,0);stroke-width:4.17px;stroke-linecap:round;"/>
                    <path d="M1039.37,3072.69L1039.37,3047.24L1110.24,3047.24L1110.24,2362.2L944.882,2362.2L944.882,1937.01L237.026,1937.01" style="fill:none;stroke:rgb(254,97,0);stroke-width:4.17px;stroke-linecap:round;"/>
                    <path d="M1181.1,3072.69L1181.1,3047.24L1110.24,3047.24L1110.24,2362.2L944.882,2362.2L944.882,1937.01L237.026,1937.01" style="fill:none;stroke:rgb(254,97,0);stroke-width:4.17px;stroke-linecap:round;"/>
                    <path d="M1417.32,944.882L1417.32,1086.61L377.953,1086.61L377.953,1937.01L236.22,1937.01" style="fill:none;stroke:rgb(254,97,0);stroke-width:4.17px;stroke-linecap:round;"/>
                    <path d="M1700.79,1086.61L377.953,1086.61L377.953,1937.01L236.22,1937.01" style="fill:none;stroke:rgb(254,97,0);stroke-width:4.17px;stroke-linecap:round;"/>
                    <path d="M1559.06,1417.32L1559.06,1086.61L377.953,1086.61L377.953,1937.01L237.026,1937.01" style="fill:none;stroke:rgb(254,97,0);stroke-width:4.17px;stroke-linecap:round;"/>
                    <path d="M1606.3,614.173L1606.3,661.417L1511.81,661.417L1511.81,1086.61L377.953,1086.61L377.953,1937.01L236.22,1937.01" style="fill:none;stroke:rgb(254,97,0);stroke-width:4.17px;stroke-linecap:round;"/>
                    <path d="M519.685,330.709L519.685,377.953L1511.81,377.953L1511.81,1086.61L377.953,1086.61L377.953,1937.01L236.22,1937.01" style="fill:none;stroke:rgb(254,97,0);stroke-width:4.17px;stroke-linecap:round;"/>
                    <path d="M1039.37,330.866L1039.37,377.953L1511.81,377.953L1511.81,1086.61L377.953,1086.61L377.953,1937.01L236.22,1937.01" style="fill:none;stroke:rgb(254,97,0);stroke-width:4.17px;stroke-linecap:round;"/>
                    <path d="M1322.84,330.866L1322.84,377.953L1511.81,377.953L1511.81,1086.61L377.953,1086.61L377.953,1937.01L237.026,1937.01" style="fill:none;stroke:rgb(254,97,0);stroke-width:4.17px;stroke-linecap:round;"/>
                    <path d="M1110.24,3401.58L1110.24,2362.2L944.882,2362.2L944.882,1937.01L237.026,1937.01" style="fill:none;stroke:rgb(254,97,0);stroke-width:4.17px;stroke-linecap:round;"/>
                    <path d="M377.953,944.882L377.953,1937.01L237.026,1937.01" style="fill:none;stroke:rgb(254,97,0);stroke-width:4.17px;stroke-linecap:round;"/>
                    <g transform="matrix(1,0,0,1,47.2441,1.13687e-13)">
                        <path d="M330.709,708.661L330.709,755.906L260.245,755.906L259.843,992.126L330.709,992.126L330.709,1937.01L188.976,1937.01" style="fill:none;stroke:rgb(254,97,0);stroke-width:4.17px;stroke-linecap:round;"/>
                    </g>
                    <path d="M803.15,1133.86L803.15,1086.61L377.953,1086.61L377.953,1937.01L213.001,1937.01" style="fill:none;stroke:rgb(254,97,0);stroke-width:4.17px;stroke-linecap:round;"/>
                    <g transform="matrix(1,0,0,1,0,47.2441)">
                        <path d="M2007.87,3000L2102.36,3000" style="fill:none;stroke:rgb(254,97,0);stroke-width:4.17px;"/>
                    </g>
                </g>
            </g>
        </g>
        <g id="API-Connections" serif:id="API Connections" transform="matrix(1,0,0,1,-177.165,-17.7165)">
            <g opacity="0.75">
                <path d="M1341.59,1313.46L1322.84,1322.84L1341.59,1332.21C1336.9,1327.52 1336.9,1318.15 1341.59,1313.46Z" style="fill:rgb(100,143,255);"/>
                <path d="M2579.68,1880.39L2598.43,1889.76L2579.68,1899.14C2584.36,1894.45 2584.36,1885.08 2579.68,1880.39Z" style="fill:rgb(100,143,255);"/>
                <path d="M1337.84,1322.84L1370.08,1322.84L1370.08,1606.3L1984.25,1606.3L1984.25,1889.76L2583.43,1889.76" style="fill:none;stroke:rgb(100,143,255);stroke-width:6.25px;stroke-linecap:round;"/>
                <path d="M1436.07,793.775L1417.32,803.15L1436.07,812.525C1431.38,807.837 1431.38,798.462 1436.07,793.775Z" style="fill:rgb(100,143,255);"/>
                <path d="M2603.3,793.775L2622.05,803.15L2603.3,812.525C2607.99,807.837 2607.99,798.462 2603.3,793.775Z" style="fill:rgb(100,143,255);"/>
                <path d="M1432.32,803.15L2607.05,803.15" style="fill:none;stroke:rgb(100,143,255);stroke-width:6.25px;stroke-linecap:round;"/>
                <path d="M2522.69,1455.19L2503.94,1464.57L2522.69,1473.94C2518,1469.25 2518,1459.88 2522.69,1455.19Z" style="fill:rgb(100,143,255);"/>
                <path d="M2603.3,1455.19L2622.05,1464.57L2603.3,1473.94C2607.99,1469.25 2607.99,1459.88 2603.3,1455.19Z" style="fill:rgb(100,143,255);"/>
                <path d="M2518.94,1464.57L2607.05,1464.57" style="fill:none;stroke:rgb(100,143,255);stroke-width:6.25px;stroke-linecap:round;"/>
                <path d="M1341.59,1502.44L1322.84,1511.81L1341.59,1521.19C1336.9,1516.5 1336.9,1507.12 1341.59,1502.44Z" style="fill:rgb(100,143,255);"/>
                <path d="M2579.68,1880.39L2598.43,1889.76L2579.68,1899.14C2584.36,1894.45 2584.36,1885.08 2579.68,1880.39Z" style="fill:rgb(100,143,255);"/>
                <path d="M1337.84,1511.81L1370.08,1511.81L1370.08,1606.3L1984.25,1606.3L1984.25,1889.76L2583.43,1889.76" style="fill:none;stroke:rgb(100,143,255);stroke-width:6.25px;stroke-linecap:round;"/>
                <path d="M1861.27,1998.5L1842.52,2007.87L1861.27,2017.25C1856.58,2012.56 1856.58,2003.19 1861.27,1998.5Z" style="fill:rgb(100,143,255);"/>
                <path d="M2603.3,2281.96L2622.05,2291.34L2603.3,2300.71C2607.99,2296.03 2607.99,2286.65 2603.3,2281.96Z" style="fill:rgb(100,143,255);"/>
                <path d="M1857.52,2007.87L2078.74,2007.87L2078.74,2291.34L2607.05,2291.34" style="fill:none;stroke:rgb(100,143,255);stroke-width:6.25px;stroke-linecap:round;"/>
                <path d="M1862.52,2754.41L1843.77,2763.78L1862.52,2773.16C1857.83,2768.47 1857.83,2759.09 1862.52,2754.41Z" style="fill:rgb(100,143,255);"/>
                <path d="M2602.29,2754.41L2621.04,2763.78L2602.29,2773.16C2606.98,2768.47 2606.98,2759.09 2602.29,2754.41Z" style="fill:rgb(100,143,255);"/>
                <path d="M1858.77,2763.78L2606.04,2763.78" style="fill:none;stroke:rgb(100,143,255);stroke-width:6.25px;stroke-linecap:round;"/>
                <path d="M1814.03,3439.29L1795.28,3448.66L1814.02,3458.04C1809.34,3453.35 1809.34,3443.98 1814.03,3439.29Z" style="fill:rgb(100,143,255);"/>
                <path d="M2603.3,3392.2L2622.05,3401.58L2603.3,3410.95C2607.99,3406.26 2607.99,3396.89 2603.3,3392.2Z" style="fill:rgb(100,143,255);"/>
                <path d="M1810.28,3448.66C1912.61,3448.69 2503.94,3448.82 2503.94,3448.82L2503.94,3401.58L2607.05,3401.58" style="fill:none;stroke:rgb(100,143,255);stroke-width:6.25px;stroke-linecap:round;"/>
                <path d="M1199.85,1171.73L1181.1,1181.1L1199.85,1190.48C1195.16,1185.79 1195.16,1176.41 1199.85,1171.73Z" style="fill:rgb(100,143,255);"/>
                <path d="M2603.3,1880.39L2622.05,1889.76L2603.3,1899.14C2607.99,1894.45 2607.99,1885.08 2603.3,1880.39Z" style="fill:rgb(100,143,255);"/>
                <path d="M1196.1,1181.1L1370.08,1181.1L1370.08,1606.3L1984.25,1606.3L1984.25,1889.76L2607.05,1889.76" style="fill:none;stroke:rgb(100,143,255);stroke-width:6.25px;"/>
                <g transform="matrix(1,0,0,1,0,141.732)">
                    <g transform="matrix(1,-0,-0,1,0,-141.732)">
                        <path d="M2026.62,3132.36L2007.87,3141.73L2026.62,3151.11C2021.94,3146.42 2021.94,3137.05 2026.62,3132.36Z" style="fill:rgb(100,143,255);"/>
                        <path d="M2083.61,3132.36L2102.36,3141.73L2083.61,3151.11C2088.3,3146.42 2088.3,3137.05 2083.61,3132.36Z" style="fill:rgb(100,143,255);"/>
                        <path d="M2022.87,3141.73L2087.36,3141.73" style="fill:none;stroke:rgb(100,143,255);stroke-width:6.25px;"/>
                    </g>
                </g>
            </g>
        </g>
        <g id="Data-Flow" serif:id="Data Flow" transform="matrix(1,0,0,1,-177.165,-17.7165)">
            <g id="Everything-Else" serif:id="Everything Else">
                <path d="M467.569,198.563L448.819,236.063L430.069,198.563C439.444,207.938 458.194,207.938 467.569,198.563Z"/>
                <path d="M448.819,141.732L448.819,206.063" style="fill:none;stroke:black;stroke-width:12.5px;"/>
                <g transform="matrix(1,0,0,1,-2.27374e-13,-0.15725)">
                    <g transform="matrix(1,-0,-0,1,2.27374e-13,0.15725)">
                        <path d="M576.673,264.557L614.173,283.307L576.673,302.057C586.048,292.682 586.048,273.932 576.673,264.557Z"/>
                        <path d="M566.929,283.307L584.173,283.307" style="fill:none;stroke:black;stroke-width:12.5px;"/>
                    </g>
                </g>
                <path d="M1294.34,198.563L1275.59,236.063L1256.84,198.563C1266.22,207.938 1284.97,207.938 1294.34,198.563Z"/>
                <path d="M1275.59,141.732L1275.59,206.063" style="fill:none;stroke:black;stroke-width:12.5px;"/>
                <path d="M963.632,434.941L944.882,472.441L926.132,434.941C935.507,444.316 954.257,444.316 963.632,434.941Z"/>
                <path d="M448.819,330.866L448.819,425.197L944.882,425.197L944.882,442.441" style="fill:none;stroke:black;stroke-width:12.5px;"/>
                <path d="M963.632,434.941L944.882,472.441L926.132,434.941C935.507,444.316 954.257,444.316 963.632,434.941Z"/>
                <path d="M944.882,330.709L944.882,442.441" style="fill:none;stroke:black;stroke-width:12.5px;"/>
                <path d="M467.569,576.673L448.819,614.173L430.069,576.673C439.444,586.048 458.194,586.048 467.569,576.673Z"/>
                <path d="M448.819,330.709L448.819,584.173" style="fill:none;stroke:black;stroke-width:12.5px;"/>
                <path d="M467.569,576.673L448.819,614.173L430.069,576.673C439.444,586.048 458.194,586.048 467.569,576.673Z"/>
                <path d="M944.882,330.709L944.882,425.197L448.819,425.197L448.819,584.173" style="fill:none;stroke:black;stroke-width:12.5px;"/>
                <path d="M718.406,737.156L755.906,755.906L718.406,774.656C727.781,765.281 727.781,746.531 718.406,737.156Z"/>
                <path d="M519.685,708.661L519.685,755.906L725.906,755.906" style="fill:none;stroke:black;stroke-width:12.5px;"/>
                <path d="M538.435,812.894L519.685,850.394L500.935,812.894C510.31,822.269 529.06,822.269 538.435,812.894Z"/>
                <path d="M755.906,803.15L519.685,803.15L519.685,820.394" style="fill:none;stroke:black;stroke-width:12.5px;"/>
                <path d="M1521.56,548.179L1559.06,566.929L1521.56,585.679C1530.93,576.304 1530.93,557.554 1521.56,548.179Z"/>
                <path d="M1464.57,566.929L1529.06,566.929" style="fill:none;stroke:black;stroke-width:12.5px;"/>
                <path d="M1616.04,689.911L1653.54,708.661L1616.04,727.411C1625.42,718.036 1625.42,699.286 1616.04,689.911Z"/>
                <path d="M1464.57,708.661L1623.54,708.661" style="fill:none;stroke:black;stroke-width:12.5px;"/>
                <path d="M1837.65,812.894L1818.9,850.394L1800.15,812.894C1809.52,822.269 1828.27,822.269 1837.65,812.894Z"/>
                <path d="M1818.9,755.906L1818.9,820.394" style="fill:none;stroke:black;stroke-width:12.5px;"/>
                <path d="M2050.25,812.894L2031.5,850.394L2012.75,812.894C2022.12,822.269 2040.87,822.269 2050.25,812.894Z"/>
                <path d="M2031.5,614.173L2031.5,820.394" style="fill:none;stroke:black;stroke-width:12.5px;"/>
                <path d="M1814.03,1379.82L1795.28,1417.32L1776.53,1379.82C1785.9,1389.2 1804.65,1389.2 1814.03,1379.82Z"/>
                <path d="M1795.28,1322.84L1795.28,1387.32" style="fill:none;stroke:black;stroke-width:12.5px;"/>
                <path d="M1946.75,1445.82L1984.25,1464.57L1946.75,1483.32C1956.13,1473.94 1956.13,1455.19 1946.75,1445.82Z"/>
                <path d="M1889.76,1464.57L1954.25,1464.57" style="fill:none;stroke:black;stroke-width:12.5px;"/>
                <path d="M538.435,1427.07L519.685,1464.57L500.935,1427.07C510.31,1436.44 529.06,1436.44 538.435,1427.07Z"/>
                <path d="M519.685,944.882L519.685,1434.57" style="fill:none;stroke:black;stroke-width:12.5px;"/>
                <path d="M1058.12,1427.07L1039.37,1464.57L1020.62,1427.07C1030,1436.44 1048.75,1436.44 1058.12,1427.07Z"/>
                <path d="M1039.37,1370.08L1039.37,1434.57" style="fill:none;stroke:black;stroke-width:12.5px;"/>
                <path d="M1270.72,1616.04L1251.97,1653.54L1233.22,1616.04C1242.59,1625.42 1261.34,1625.42 1270.72,1616.04Z"/>
                <path d="M1251.97,1559.06L1251.97,1623.54" style="fill:none;stroke:black;stroke-width:12.5px;"/>
                <path d="M514.813,2371.95L496.063,2409.45L477.313,2371.95C486.688,2381.32 505.438,2381.32 514.813,2371.95Z"/>
                <path d="M496.063,1559.06L496.063,2379.45" style="fill:none;stroke:black;stroke-width:12.5px;"/>
                <path d="M1554.18,2182.97L1535.43,2220.47L1516.68,2182.97C1526.06,2192.35 1544.81,2192.35 1554.18,2182.97Z"/>
                <path d="M1535.43,2125.98L1535.43,2190.47" style="fill:none;stroke:black;stroke-width:12.5px;"/>
                <path d="M1554.18,2371.95L1535.43,2409.45L1516.68,2371.95C1526.06,2381.32 1544.81,2381.32 1554.18,2371.95Z"/>
                <path d="M1535.43,2314.96L1535.43,2379.45" style="fill:none;stroke:black;stroke-width:12.5px;"/>
                <path d="M1554.18,3033.37L1535.43,3070.87L1516.68,3033.37C1526.06,3042.74 1544.81,3042.74 1554.18,3033.37Z"/>
                <path d="M1535.43,2881.89L1535.43,3040.87" style="fill:none;stroke:black;stroke-width:12.5px;"/>
                <path d="M703.789,3035.19L685.039,3072.69L666.289,3035.19C675.664,3044.56 694.414,3044.56 703.789,3035.19Z"/>
                <path d="M685.039,2881.89L685.039,3042.69" style="fill:none;stroke:black;stroke-width:12.5px;"/>
                <path d="M703.789,3035.19L685.039,3072.69L666.289,3035.19C675.664,3044.56 694.414,3044.56 703.789,3035.19Z"/>
                <path d="M1535.43,2881.89L1535.43,2976.38L685.039,2976.38L685.039,3042.69" style="fill:none;stroke:black;stroke-width:12.5px;"/>
                <path d="M1554.18,3033.37L1535.43,3070.87L1516.68,3033.37C1526.06,3042.74 1544.81,3042.74 1554.18,3033.37Z"/>
                <path d="M685.039,2881.89L685.039,2976.38L1535.43,2976.38C1535.43,2976.38 1535.43,3013.2 1535.43,3040.87" style="fill:none;stroke:black;stroke-width:12.5px;"/>
                <path d="M1436.07,3364.08L1417.32,3401.58L1398.57,3364.08C1407.95,3373.45 1426.7,3373.45 1436.07,3364.08Z"/>
                <path d="M685.039,3167.18L685.039,3259.84L1417.32,3259.84L1417.32,3371.58" style="fill:none;stroke:black;stroke-width:12.5px;"/>
                <path d="M1436.07,3364.08L1417.32,3401.58L1398.57,3364.08C1407.95,3373.45 1426.7,3373.45 1436.07,3364.08Z"/>
                <path d="M1417.32,3165.35L1417.32,3371.58" style="fill:none;stroke:black;stroke-width:12.5px;"/>
            </g>
            <g id="IRTF-Only-Data" serif:id="IRTF Only Data">
                <path d="M2026.62,9.744L2007.87,47.244L1989.12,9.744C1998.5,19.119 2017.25,19.119 2026.62,9.744Z" style="fill:rgb(255,0,0);"/>
                <path d="M2007.87,0L2007.87,17.244" style="fill:none;stroke:rgb(255,0,0);stroke-width:12.5px;"/>
                <path d="M1407.58,113.238L1370.08,94.488L1407.58,75.738C1398.2,85.113 1398.2,103.863 1407.58,113.238Z" style="fill:rgb(255,0,0);"/>
                <path d="M1464.57,94.488L1400.08,94.488" style="fill:none;stroke:rgb(255,0,0);stroke-width:12.5px;"/>
                <g transform="matrix(1,0,0,1,0,47.2441)">
                    <g transform="matrix(1,-0,-0,1,0,-47.2441)">
                        <path d="M2064.86,2934.01L2102.36,2952.76L2064.86,2971.51C2074.24,2962.13 2074.24,2943.38 2064.86,2934.01Z" style="fill:rgb(255,0,0);"/>
                        <path d="M2007.87,2952.76L2072.36,2952.76" style="fill:none;stroke:rgb(255,0,0);stroke-width:12.5px;"/>
                    </g>
                </g>
            </g>
            <g transform="matrix(1,0,0,1,0,3.54148)">
                <g transform="matrix(1,-0,-0,1,0,-3.54148)">
                    <path d="M2064.86,2890.3L2102.36,2909.05L2064.86,2927.8C2074.24,2918.43 2074.24,2899.68 2064.86,2890.3Z"/>
                    <path d="M2007.87,2909.05L2072.36,2909.05" style="fill:none;stroke:black;stroke-width:12.5px;"/>
                </g>
            </g>
        </g>
    </g>
    <g id="AstrometricSolution">
        <g id="AstrometryNetWebAPIEngine">
            <g transform="matrix(1,0,0,1,519.685,212.598)">
                <rect x="330.709" y="566.929" width="566.929" height="94.488" style="fill:none;stroke:black;stroke-width:8.33px;stroke-linecap:round;"/>
            </g>
            <g transform="matrix(1,0,0,1,428.322,-43.8521)">
                <text x="469.389px" y="883.723px" style="font-family:'Sylfaen', sans-serif;font-size:50px;">Astrometry.net Nova</text>
            </g>
        </g>
        <g id="AstrometryEngine">
            <g transform="matrix(1,0,0,1,532.484,-142.061)">
                <text x="365.227px" y="862.891px" style="font-family:'Sylfaen', sans-serif;font-size:50px;">AstrometryEngine</text>
            </g>
            <g transform="matrix(1,0,0,1,519.685,236.22)">
                <rect x="330.709" y="425.197" width="566.929" height="94.488" style="fill:none;stroke:black;stroke-width:8.33px;stroke-linecap:round;"/>
            </g>
        </g>
        <g id="_-Astrometry--Vehicle" serif:id="(Astrometry) Vehicle">
            <g transform="matrix(0.923077,0,0,1,541.49,236.22)">
                <rect x="283.465" y="330.709" width="614.173" height="330.709" style="fill:none;stroke:black;stroke-width:8.66px;stroke-linecap:round;"/>
            </g>
            <g transform="matrix(1,0,0,1,575.083,-259.656)">
                <text x="272.283px" y="886.928px" style="font-family:'Sylfaen', sans-serif;font-size:50px;">(Astrometry) Vehicle</text>
            </g>
        </g>
        <g transform="matrix(1,0,0,1,519.685,236.22)">
            <rect x="236.22" y="236.22" width="708.661" height="472.441" style="fill:none;stroke:black;stroke-width:8.33px;stroke-linecap:round;"/>
        </g>
        <g transform="matrix(1,0,0,1,747.275,-296.466)">
            <text x="55.947px" y="834.046px" style="font-family:'Sylfaen', sans-serif;font-size:50px;">AstrometricSolution</text>
        </g>
    </g>
    <g id="PhotometricSolution">
        <g id="PanstarrsMastWebAPIEngine">
            <g transform="matrix(1,0,0,1,1371.28,331.876)">
                <text x="469.389px" y="883.723px" style="font-family:'Sylfaen', sans-serif;font-size:50px;">PanSTARRS DR 2</text>
            </g>
            <g transform="matrix(1,0,0,1,1464.57,590.551)">
                <rect x="330.709" y="566.929" width="566.929" height="94.488" style="fill:none;stroke:black;stroke-width:8.33px;stroke-linecap:round;"/>
            </g>
        </g>
        <g id="PhotometryEngine">
            <g transform="matrix(1,0,0,1,1475.44,234.455)">
                <text x="365.227px" y="862.891px" style="font-family:'Sylfaen', sans-serif;font-size:50px;">PhotometryEngine</text>
            </g>
            <g transform="matrix(1,0,0,1,1464.57,614.173)">
                <rect x="330.709" y="425.197" width="566.929" height="94.488" style="fill:none;stroke:black;stroke-width:8.33px;stroke-linecap:round;"/>
            </g>
        </g>
        <g id="_-Photometry--Vehicle" serif:id="(Photometry) Vehicle">
            <g transform="matrix(1,0,0,1,1519.99,115.929)">
                <text x="272.283px" y="886.928px" style="font-family:'Sylfaen', sans-serif;font-size:50px;">(Photometry) Vehicle</text>
            </g>
            <g transform="matrix(0.923077,0,0,1,1486.37,614.173)">
                <rect x="283.465" y="330.709" width="614.173" height="330.709" style="fill:none;stroke:black;stroke-width:8.66px;stroke-linecap:round;"/>
            </g>
        </g>
        <g transform="matrix(1,0,0,1,1464.57,614.173)">
            <rect x="236.22" y="236.22" width="708.661" height="472.441" style="fill:none;stroke:black;stroke-width:8.33px;stroke-linecap:round;"/>
        </g>
        <g transform="matrix(1,0,0,1,1690.23,80.8889)">
            <text x="55.947px" y="834.046px" style="font-family:'Sylfaen', sans-serif;font-size:50px;">PhotometricSolution</text>
        </g>
    </g>
    <g id="OrbitalSolution">
        <g id="OrbitEngine">
            <g transform="matrix(1,0,0,1,944.882,1417.32)">
                <rect x="330.709" y="425.197" width="566.929" height="94.488" style="fill:none;stroke:black;stroke-width:8.33px;stroke-linecap:round;"/>
            </g>
            <g transform="matrix(1,0,0,1,955.703,1037.6)">
                <text x="365.227px" y="862.891px" style="font-family:'Sylfaen', sans-serif;font-size:50px;">OrbitEngine</text>
            </g>
        </g>
        <g id="_-Orbit--Vehicle" serif:id="(Orbit) Vehicle">
            <g transform="matrix(1,0,0,1,1000.3,920.174)">
                <text x="272.283px" y="886.928px" style="font-family:'Sylfaen', sans-serif;font-size:50px;">(Orbit) Vehicle</text>
            </g>
            <g transform="matrix(0.923077,0,0,1,966.687,1417.32)">
                <rect x="283.465" y="330.709" width="614.173" height="330.709" style="fill:none;stroke:black;stroke-width:8.66px;stroke-linecap:round;"/>
            </g>
        </g>
        <g id="OrbfitOrbitDeterminerEngine">
            <g transform="matrix(1,0,0,1,851.542,1141.45)">
                <text x="469.389px" y="883.723px" style="font-family:'Sylfaen', sans-serif;font-size:50px;">Orbﬁt</text>
            </g>
            <g transform="matrix(1,0,0,1,944.882,1393.7)">
                <rect x="330.709" y="566.929" width="566.929" height="94.488" style="fill:none;stroke:black;stroke-width:8.33px;stroke-linecap:round;"/>
            </g>
        </g>
        <g transform="matrix(1,0,0,1,944.882,1417.32)">
            <rect x="236.22" y="236.22" width="708.661" height="472.441" style="fill:none;stroke:black;stroke-width:8.33px;stroke-linecap:round;"/>
        </g>
        <g transform="matrix(1,0,0,1,1170.49,884.038)">
            <text x="55.947px" y="834.046px" style="font-family:'Sylfaen', sans-serif;font-size:50px;">OrbitalSolution</text>
        </g>
    </g>
    <g id="PropagationSolution">
        <g id="LinearPropagationEngine">
            <g transform="matrix(1,0,0,1,94.4882,2149.61)">
                <rect x="330.709" y="566.929" width="566.929" height="94.488" style="fill:none;stroke:black;stroke-width:8.33px;stroke-linecap:round;"/>
            </g>
            <g transform="matrix(1,0,0,1,1.14804,1888.77)">
                <text x="469.389px" y="883.723px" style="font-family:'Sylfaen', sans-serif;font-size:50px;">Linear Propagation</text>
            </g>
        </g>
        <g id="PropagationEngine">
            <g transform="matrix(1,0,0,1,105.358,1793.51)">
                <text x="365.227px" y="862.891px" style="font-family:'Sylfaen', sans-serif;font-size:50px;">PropagationEngine</text>
            </g>
            <g transform="matrix(1,0,0,1,94.4882,2173.23)">
                <rect x="330.709" y="425.197" width="566.929" height="94.488" style="fill:none;stroke:black;stroke-width:8.33px;stroke-linecap:round;"/>
            </g>
        </g>
        <g id="_-Propagation--Vehicle" serif:id="(Propagation) Vehicle">
            <g transform="matrix(1,0,0,1,149.911,1674.98)">
                <text x="272.283px" y="886.928px" style="font-family:'Sylfaen', sans-serif;font-size:50px;">(Propagation) Vehicle</text>
            </g>
            <g transform="matrix(0.923077,0,0,1,116.293,2173.23)">
                <rect x="283.465" y="330.709" width="614.173" height="330.709" style="fill:none;stroke:black;stroke-width:8.66px;stroke-linecap:round;"/>
            </g>
        </g>
        <g transform="matrix(1,0,0,1,94.4882,2173.23)">
            <rect x="236.22" y="236.22" width="708.661" height="472.441" style="fill:none;stroke:black;stroke-width:8.33px;stroke-linecap:round;"/>
        </g>
        <g transform="matrix(1,0,0,1,320.15,1633.38)">
            <text x="55.947px" y="834.046px" style="font-family:'Sylfaen', sans-serif;font-size:50px;">PropagativeSolution</text>
        </g>
    </g>
    <g id="EphemeriticSolution">
        <g id="EphemerisEngine">
            <g transform="matrix(1,0,0,1,946.127,2173.23)">
                <rect x="330.709" y="425.197" width="566.929" height="94.488" style="fill:none;stroke:black;stroke-width:8.33px;stroke-linecap:round;"/>
            </g>
            <g transform="matrix(1,0,0,1,955.752,1793.51)">
                <text x="365.227px" y="862.891px" style="font-family:'Sylfaen', sans-serif;font-size:50px;">EphemerisEngine</text>
            </g>
        </g>
        <g id="JPLHorizonsWebAPIEngine">
            <g transform="matrix(1,0,0,1,852.993,1892.36)">
                <text x="469.389px" y="883.723px" style="font-family:'Sylfaen', sans-serif;font-size:50px;">JPL Horizons</text>
            </g>
            <g transform="matrix(1,0,0,1,946.127,2149.61)">
                <rect x="330.709" y="566.929" width="566.929" height="94.488" style="fill:none;stroke:black;stroke-width:8.33px;stroke-linecap:round;"/>
            </g>
        </g>
        <g id="_-Ephemeris--Vehicle" serif:id="(Ephemeris) Vehicle">
            <g transform="matrix(0.923077,0,0,1,967.932,2173.23)">
                <rect x="283.465" y="330.709" width="614.173" height="330.709" style="fill:none;stroke:black;stroke-width:8.66px;stroke-linecap:round;"/>
            </g>
            <g transform="matrix(1,0,0,1,1000.3,1675.62)">
                <text x="272.283px" y="886.928px" style="font-family:'Sylfaen', sans-serif;font-size:50px;">(Ephemeris) Vehicle</text>
            </g>
        </g>
        <g transform="matrix(1,0,0,1,946.127,2173.23)">
            <rect x="236.22" y="236.22" width="708.661" height="472.441" style="fill:none;stroke:black;stroke-width:8.33px;stroke-linecap:round;"/>
        </g>
        <g transform="matrix(1,0,0,1,1170.54,1634.33)">
            <text x="55.947px" y="834.046px" style="font-family:'Sylfaen', sans-serif;font-size:50px;">EphemeriticSolution</text>
        </g>
    </g>
    <g id="Opihi-IRTF-Telescope-Light" serif:id="Opihi IRTF Telescope Light">
        <g transform="matrix(0.481016,0,0,0.571429,1419.12,20.2475)">
            <rect x="94.488" y="47.244" width="2259" height="165.354" style="fill:none;stroke:black;stroke-width:15.78px;stroke-linecap:round;"/>
        </g>
        <g transform="matrix(1,0,0,1,1245.51,-230.408)">
            <text x="471.003px" y="336.102px" style="font-family:'Sylfaen', sans-serif;font-size:50px;">Opihi IRTF Telescope Light</text>
        </g>
    </g>
    <g id="Opihi-Camera-Controller" serif:id="Opihi Camera Controller" transform="matrix(1,0,0,1,-1181.1,0.147926)">
        <g transform="matrix(0.481016,0,0,0.570534,1419.12,20.2897)">
            <rect x="94.488" y="47.244" width="2259" height="165.354" style="fill:none;stroke:black;stroke-width:15.79px;stroke-linecap:round;"/>
        </g>
        <g transform="matrix(1,0,0,1,1214.65,-230.395)">
            <text x="471.003px" y="336.102px" style="font-family:'Sylfaen', sans-serif;font-size:50px;">Opihi Camera (and Controller)</text>
        </g>
    </g>
    <g id="Graphical-User-Interface" serif:id="Graphical User Interface">
        <g transform="matrix(0.573865,0,0,1.70732,-34.0911,-859.612)">
            <rect x="141.732" y="614.173" width="330.709" height="1937.01" style="fill:rgb(254,97,0);fill-opacity:0.1;stroke:rgb(254,97,0);stroke-width:6.54px;stroke-linecap:round;"/>
        </g>
        <g id="Manual-Operation-GUI" serif:id="Manual Operation GUI" transform="matrix(1,0,0,1,7.10543e-14,897.638)">
            <g transform="matrix(6.12323e-17,1,-1,6.12323e-17,822.858,663.43)">
                <text x="321.554px" y="698.021px" style="font-family:'Sylfaen', sans-serif;font-size:50px;">Manual Mode GUI</text>
            </g>
            <g transform="matrix(0.545455,0,0,1.33333,-160.657,283.465)">
                <rect x="425.197" y="496.063" width="259.843" height="354.331" style="fill:none;stroke:black;stroke-width:8.18px;stroke-linecap:round;"/>
            </g>
        </g>
        <g id="Automatic-Operation-GUI" serif:id="Automatic Operation GUI" transform="matrix(1,0,0,1,8.52651e-14,1582.68)">
            <g transform="matrix(6.12323e-17,1,-1,6.12323e-17,822.858,-665.982)">
                <text x="321.554px" y="698.021px" style="font-family:'Sylfaen', sans-serif;font-size:50px;">Automatic Mode GUI</text>
            </g>
            <g transform="matrix(0.545455,0,0,1.6,-160.657,-1195.28)">
                <rect x="425.197" y="496.063" width="259.843" height="354.331" style="fill:none;stroke:black;stroke-width:6.97px;stroke-linecap:round;"/>
            </g>
        </g>
        <g id="Asteroid-Finder-GUI" serif:id="Asteroid Finder GUI" transform="matrix(1,0,0,1,0,283.465)">
            <g transform="matrix(6.12323e-17,1,-1,6.12323e-17,822.455,7.77627)">
                <text x="321.554px" y="698.021px" style="font-family:'Sylfaen', sans-serif;font-size:50px;">Asteroid Finder GUI</text>
            </g>
            <g transform="matrix(0.545455,0,0,1.46667,-160.657,-444.094)">
                <rect x="425.197" y="496.063" width="259.843" height="354.331" style="fill:none;stroke:black;stroke-width:7.53px;stroke-linecap:round;"/>
            </g>
        </g>
        <g transform="matrix(6.12323e-17,1,-1,6.12323e-17,720.998,-259.41)">
            <text x="494.874px" y="578.155px" style="font-family:'Sylfaen', sans-serif;font-size:50px;fill:rgb(254,97,0);">User GUIs</text>
        </g>
    </g>
    <g id="External-APIs" serif:id="External APIs">
        <g transform="matrix(0.571429,0,0,1.70732,2517.44,-859.612)">
            <rect x="141.732" y="614.173" width="330.709" height="1937.01" style="fill:rgb(100,143,255);fill-opacity:0.1;stroke:rgb(100,143,255);stroke-width:6.55px;stroke-linecap:round;"/>
        </g>
        <g transform="matrix(6.12323e-17,1,-1,6.12323e-17,3033.14,-1553.16)">
            <text x="1787.53px" y="339.514px" style="font-family:'Sylfaen', sans-serif;font-size:50px;fill:rgb(100,143,255);">External APIs</text>
        </g>
        <g id="JPL-Horizons" serif:id="JPL Horizons" transform="matrix(1,0,0,1,0,1464.57)">
            <g transform="matrix(0.428571,0,0,1,1871.88,-614.173)">
                <rect x="1748.03" y="1606.3" width="330.709" height="377.953" style="fill:none;stroke:black;stroke-width:10.83px;stroke-linecap:round;"/>
            </g>
            <g transform="matrix(6.12323e-17,1,-1,6.12323e-17,4771.25,-693.951)">
                <text x="1737.08px" y="2091.65px" style="font-family:'Sylfaen', sans-serif;font-size:50px;">JPL Horizons</text>
            </g>
        </g>
        <g id="TCS-T3IO" serif:id="TCS T3IO" transform="matrix(1,0,0,1,0,2078.74)">
            <g transform="matrix(0.428571,0,0,1.25,1871.88,-1110.24)">
                <rect x="1748.03" y="1606.3" width="330.709" height="377.953" style="fill:none;stroke:black;stroke-width:8.92px;stroke-linecap:round;"/>
            </g>
            <g transform="matrix(6.12323e-17,1,-1,6.12323e-17,4772.03,-792.641)">
                <text x="1737.08px" y="2091.65px" style="font-family:'Sylfaen', sans-serif;font-size:50px;">Telescope Control</text>
            </g>
        </g>
        <g id="Orbfit" transform="matrix(1,0,0,1,-4.99268,1181.1)">
            <g transform="matrix(0.428571,0,0,0.625,1877.88,-11.811)">
                <rect x="1748.03" y="1606.3" width="330.709" height="377.953" style="fill:none;stroke:black;stroke-width:15.55px;stroke-linecap:round;"/>
            </g>
            <g transform="matrix(6.12323e-17,1,-1,6.12323e-17,4772.26,-691.536)">
                <text x="1737.08px" y="2091.65px" style="font-family:'Sylfaen', sans-serif;font-size:50px;">Orbﬁt</text>
            </g>
        </g>
        <g id="Minor-Planet-Center" serif:id="Minor Planet Center" transform="matrix(1,0,0,1,0,614.173)">
            <g transform="matrix(0.428571,0,0,1.375,1871.88,-1216.54)">
                <rect x="1748.03" y="1606.3" width="330.709" height="377.953" style="fill:none;stroke:black;stroke-width:8.18px;stroke-linecap:round;"/>
            </g>
            <g transform="matrix(6.12323e-17,1,-1,6.12323e-17,4767.26,-702.383)">
                <text x="1737.08px" y="2091.65px" style="font-family:'Sylfaen', sans-serif;font-size:50px;">Minor Planet Center</text>
            </g>
        </g>
        <g id="Atmospheric-Monitering-Webpage" serif:id="Atmospheric Monitering Webpage">
            <g transform="matrix(0.428571,0,0,1.375,1872.89,-1169.29)">
                <rect x="1748.03" y="1606.3" width="330.709" height="377.953" style="fill:none;stroke:black;stroke-width:8.18px;stroke-linecap:round;"/>
            </g>
            <g transform="matrix(6.12323e-17,1,-1,6.12323e-17,4772.35,-661.91)">
                <text x="1737.08px" y="2091.65px" style="font-family:'Sylfaen', sans-serif;font-size:50px;">Monitoring Webpage</text>
            </g>
        </g>
        <g id="Astrometry.net" transform="matrix(1,0,0,1,23.622,-614.173)">
            <g transform="matrix(0.428571,0,0,1.125,1849.27,-625.984)">
                <rect x="1748.03" y="1606.3" width="330.709" height="377.953" style="fill:none;stroke:black;stroke-width:9.79px;stroke-linecap:round;"/>
            </g>
            <g transform="matrix(6.12323e-17,1,-1,6.12323e-17,4749.13,-503.238)">
                <text x="1737.08px" y="2091.65px" style="font-family:'Sylfaen', sans-serif;font-size:50px;">Astrometry.net</text>
            </g>
        </g>
    </g>
    <g id="OpihiPreprocessSolution">
        <g transform="matrix(0.488372,0,0,1,475.737,-5.68434e-14)">
            <rect x="283.465" y="236.22" width="1015.75" height="94.488" style="fill:none;stroke:black;stroke-width:10.59px;stroke-linecap:round;"/>
        </g>
        <g transform="matrix(1,0,0,1,265.362,-233.927)">
            <text x="394.2px" y="528.157px" style="font-family:'Sylfaen', sans-serif;font-size:50px;">Preprocessed Data</text>
        </g>
    </g>
    <g id="Raw-Data" serif:id="Raw Data" transform="matrix(1,0,0,1,-590.551,0)">
        <g transform="matrix(0.232558,0,0,1,855.338,-0.15725)">
            <rect x="283.465" y="236.22" width="1015.75" height="94.488" style="fill:none;stroke:black;stroke-width:11.48px;stroke-linecap:round;"/>
        </g>
        <g transform="matrix(1,0,0,1,543.193,-228.225)">
            <text x="394.2px" y="528.157px" style="font-family:'Sylfaen', sans-serif;font-size:50px;">Raw Data</text>
        </g>
    </g>
    <g id="Filter-Name" serif:id="Filter Name" transform="matrix(1,0,0,1,236.22,0.758278)">
        <g transform="matrix(0.186047,0,0,1,892.144,-0.758278)">
            <rect x="283.465" y="236.22" width="1015.75" height="94.488" style="fill:none;stroke:black;stroke-width:11.59px;stroke-linecap:round;"/>
        </g>
        <g transform="matrix(1,0,0,1,587.167,-228.912)">
            <text x="394.2px" y="528.157px" style="font-family:'Sylfaen', sans-serif;font-size:50px;">Filter</text>
        </g>
    </g>
    <g id="Image-Center" serif:id="Image Center">
        <g transform="matrix(0.733333,0,0,0.666667,415.748,173.228)">
            <rect x="1559.06" y="519.685" width="708.661" height="141.732" style="fill:none;stroke:black;stroke-width:11.89px;stroke-linecap:round;"/>
        </g>
        <g transform="matrix(1,0,0,1,17.995,-10.8568)">
            <text x="1586.45px" y="588.517px" style="font-family:'Sylfaen', sans-serif;font-size:50px;">Image Center (α, δ)</text>
        </g>
    </g>
    <g id="Stars">
        <g transform="matrix(0.466667,0,0,0.666667,925.984,314.961)">
            <rect x="1559.06" y="519.685" width="708.661" height="141.732" style="fill:none;stroke:black;stroke-width:14.48px;stroke-linecap:round;"/>
        </g>
        <g transform="matrix(1,0,0,1,112.532,131.971)">
            <text x="1586.45px" y="588.517px" style="font-family:'Sylfaen', sans-serif;font-size:50px;">Stars (α, δ)</text>
        </g>
    </g>
    <g id="Zero-Point" serif:id="Zero Point" transform="matrix(1,0,0,1,165.354,874.016)">
        <g transform="matrix(0.6,0,0,0.666667,363.78,196.85)">
            <rect x="1559.06" y="519.685" width="708.661" height="141.732" style="fill:none;stroke:black;stroke-width:13.14px;stroke-linecap:round;"/>
        </g>
        <g transform="matrix(1,0,0,1,-241.848,19.3312)">
            <text x="1586.45px" y="588.517px" style="font-family:'Sylfaen', sans-serif;font-size:50px;">Filter Zero Point</text>
        </g>
    </g>
    <g id="Archive-Asteroid-Locations" serif:id="Archive Asteroid Locations" transform="matrix(1,0,0,1,-425.197,519.685)">
        <g transform="matrix(0.8,0,0,0.666667,-66.1417,409.449)">
            <rect x="1559.06" y="519.685" width="708.661" height="141.732" style="fill:none;stroke:black;stroke-width:11.32px;stroke-linecap:round;"/>
        </g>
        <g transform="matrix(1,0,0,1,-358.029,232.54)">
            <text x="1586.45px" y="588.517px" style="font-family:'Sylfaen', sans-serif;font-size:50px;">Archive Observations</text>
        </g>
    </g>
    <g id="MPC-Observation-Record" serif:id="MPC Observation Record" transform="matrix(1,0,0,1,-732.283,737.717)">
        <g transform="matrix(1.26667,0,0,0.666667,-817.323,380.393)">
            <rect x="1559.06" y="519.685" width="708.661" height="141.732" style="fill:none;stroke:black;stroke-width:8.23px;stroke-linecap:round;"/>
        </g>
        <g transform="matrix(1,0,0,1,-382.921,198.355)">
            <text x="1586.45px" y="588.517px" style="font-family:'Sylfaen', sans-serif;font-size:50px;">MPC Asteroid Observations (α, δ, t)</text>
        </g>
    </g>
    <g id="Orbital-Elements" serif:id="Orbital Elements" transform="matrix(1,0,0,1,199.142,2084.17)">
        <g transform="matrix(1.2,0,0,0.666667,-936.15,-210.158)">
            <rect x="1559.06" y="519.685" width="708.661" height="141.732" style="fill:none;stroke:black;stroke-width:8.59px;stroke-linecap:round;"/>
        </g>
        <g transform="matrix(1,0,0,1,-606.588,-393.608)">
            <text x="1586.45px" y="588.517px" style="font-family:'Sylfaen', sans-serif;font-size:50px;">Keplerian Elements (a, e, i, Ω, ω, M)</text>
        </g>
    </g>
    <g id="Asteroid-Onsky-Rates" serif:id="Asteroid Onsky Rates" transform="matrix(1,0,0,1,195.519,2982.13)">
        <g transform="matrix(1.06667,0,0,0.666667,-701.031,-257.723)">
            <rect x="1559.06" y="519.685" width="708.661" height="141.732" style="fill:none;stroke:black;stroke-width:9.37px;stroke-linecap:round;"/>
        </g>
        <g transform="matrix(1,0,0,1,-597.17,-439.44)">
            <text x="1586.45px" y="588.517px" style="font-family:'Sylfaen', sans-serif;font-size:50px;">Asteroid On-Sky Rates (dα, dδ)</text>
        </g>
    </g>
    <g id="IRTF-Telescope-Control" serif:id="IRTF Telescope Control" transform="matrix(1,0,0,1,101.031,3194.73)">
        <g transform="matrix(1.06667,0,0,0.666667,-724.653,-139.613)">
            <rect x="1559.06" y="519.685" width="708.661" height="141.732" style="fill:none;stroke:black;stroke-width:9.37px;stroke-linecap:round;"/>
        </g>
        <g transform="matrix(1,0,0,1,-602.721,-323.063)">
            <text x="1586.45px" y="588.517px" style="font-family:'Sylfaen', sans-serif;font-size:50px;">IRTF Telescope Control Update</text>
        </g>
    </g>
    <g id="Asteroid-Future-Position" serif:id="Asteroid Future Position" transform="matrix(1,0,0,1,-676.017,2960.01)">
        <g transform="matrix(1.06667,0,0,0.666667,-679.888,-233.78)">
            <rect x="1559.06" y="519.685" width="708.661" height="141.732" style="fill:none;stroke:black;stroke-width:9.37px;stroke-linecap:round;"/>
        </g>
        <g transform="matrix(1,0,0,1,-579.723,-416.139)">
            <text x="1586.45px" y="588.517px" style="font-family:'Sylfaen', sans-serif;font-size:50px;">Asteroid Future Position (t    α, δ)</text>
        </g>
        <g transform="matrix(1,0,0,1,787.725,-3034.78)">
            <text x="788.746px" y="3210.95px" style="font-family:'MS-UIGothic', 'MS UI Gothic', sans-serif;font-size:50px;">↦</text>
        </g>
    </g>
    <g id="Asteroid-Name" serif:id="Asteroid Name" transform="matrix(1,0,0,1,-1015.75,384.056)">
        <g transform="matrix(0.6,0,0,0.666667,836.22,403.346)">
            <rect x="1559.06" y="519.685" width="708.661" height="141.732" style="fill:none;stroke:black;stroke-width:13.14px;stroke-linecap:round;"/>
        </g>
        <g transform="matrix(1,0,0,1,232.522,226.132)">
            <text x="1586.45px" y="588.517px" style="font-family:'Sylfaen', sans-serif;font-size:50px;">Asteroid Name</text>
        </g>
    </g>
    <g id="Asteroid-Location" serif:id="Asteroid Location" transform="matrix(1,0,0,1,-874.016,590.551)">
        <g transform="matrix(0.533333,0,0,0.666667,373.228,-322.835)">
            <rect x="1559.06" y="519.685" width="708.661" height="141.732" style="fill:none;stroke:black;stroke-width:13.8px;stroke-linecap:round;"/>
        </g>
        <g transform="matrix(1,0,0,1,-348.559,-503.921)">
            <text x="1586.45px" y="588.517px" style="font-family:'Sylfaen', sans-serif;font-size:50px;">Asteroid (X, Y)</text>
        </g>
        <g transform="matrix(0.533333,0,0,0.666667,373.228,-86.6142)">
            <rect x="1559.06" y="519.685" width="708.661" height="141.732" style="fill:none;stroke:black;stroke-width:13.8px;stroke-linecap:round;"/>
        </g>
        <g transform="matrix(1,0,0,1,-352.603,-267.7)">
            <text x="1586.45px" y="588.517px" style="font-family:'Sylfaen', sans-serif;font-size:50px;">Asteroid (α, δ)</text>
        </g>
    </g>
    <g id="Archive-Zero-Point" serif:id="Archive Zero Point" transform="matrix(1,0,0,1,754.501,874.016)">
        <g transform="matrix(0.733333,0,0,0.666667,86.4439,196.85)">
            <rect x="1559.06" y="519.685" width="708.661" height="141.732" style="fill:none;stroke:black;stroke-width:11.89px;stroke-linecap:round;"/>
        </g>
        <g transform="matrix(1,0,0,1,-308.049,19.3312)">
            <text x="1586.45px" y="588.517px" style="font-family:'Sylfaen', sans-serif;font-size:50px;">Archive Zero Points</text>
        </g>
    </g>
</svg>
