<?xml version="1.0" encoding="UTF-8" standalone="no"?>
<!DOCTYPE svg PUBLIC "-//W3C//DTD SVG 1.1//EN" "http://www.w3.org/Graphics/SVG/1.1/DTD/svg11.dtd">
<svg width="100%" height="100%" viewBox="0 0 2008 591" version="1.1" xmlns="http://www.w3.org/2000/svg" xmlns:xlink="http://www.w3.org/1999/xlink" xml:space="preserve" xmlns:serif="http://www.serif.com/" style="fill-rule:evenodd;clip-rule:evenodd;stroke-linecap:round;stroke-linejoin:round;stroke-miterlimit:1.5;">
    <g id="Arrows" transform="matrix(1,0,0,1,-59.0551,0)">
        <g transform="matrix(1,0,0,1,59.0551,0)">
            <path d="M565.551,282.776L590.551,295.276L565.551,307.776L565.551,282.776Z"/>
            <path d="M531.496,295.276L570.551,295.276" style="fill:none;stroke:black;stroke-width:4.17px;"/>
        </g>
        <g transform="matrix(1,0,0,1,59.0551,0)">
            <path d="M1419.41,286.942L1436.07,295.276L1419.41,303.609L1419.41,286.942Z" style="stroke:black;stroke-width:4.17px;stroke-linejoin:miter;stroke-miterlimit:10;"/>
            <path d="M1436.07,295.276L1476.59,295.276" style="fill:none;stroke:black;stroke-width:4.17px;"/>
        </g>
        <path d="M531.496,59.055C590,60 533,295 590.551,295.276C590.551,295.276 623.638,295.437 649.606,295.276C643.914,295.409 590.551,295.276 590.551,295.276C531,295 590,531 531.496,531.496" style="fill:none;stroke:black;stroke-width:4.17px;"/>
        <g transform="matrix(1,0,0,1,-107.631,15.4104)">
            <text x="696.636px" y="92.487px" style="font-family:'Sylfaen', sans-serif;font-size:41.667px;">Inputs...</text>
        </g>
        <g transform="matrix(-1,0,0,1,2125.98,-5.68434e-14)">
            <path d="M531.496,59.055C590,60 533,295 590.551,295.276C590.551,295.276 623.638,295.437 649.606,295.276C643.914,295.409 590.551,295.276 590.551,295.276C531,295 590,531 531.496,531.496" style="fill:none;stroke:black;stroke-width:4.17px;"/>
        </g>
        <g transform="matrix(1,0,0,1,669.587,15.4104)">
            <text x="696.636px" y="92.487px" style="font-family:'Sylfaen', sans-serif;font-size:41.667px;">Outputs...</text>
        </g>
    </g>
    <g id="Vehicle-Args" serif:id="Vehicle Args">
        <g transform="matrix(1,0,0,1,-345.807,-13.9489)">
            <text x="876.815px" y="545.445px" style="font-family:'Sylfaen', sans-serif;font-size:50px;">Vehicle Arguments</text>
        </g>
        <path d="M1050.49,467.913L1062.99,442.913L1075.49,467.913L1050.49,467.913Z"/>
        <path d="M944.882,520.29L1062.99,520.29L1062.99,462.913" style="fill:none;stroke:black;stroke-width:4.17px;"/>
    </g>
    <g id="Vehicle" transform="matrix(1,0,0,1,318.898,-324.803)">
        <g id="Engine" transform="matrix(1,0,0,1,177.165,0)">
            <g transform="matrix(1,0,0,1,-223.859,182.023)">
                <text x="613.696px" y="480.217px" style="font-family:'Sylfaen', sans-serif;font-size:50px;">OrbitEngine</text>
            </g>
            <g transform="matrix(0.642857,0,0,0.4,26.9966,448.819)">
                <rect x="472.441" y="354.331" width="826.772" height="295.276" style="fill:none;stroke:black;stroke-width:7.78px;"/>
            </g>
        </g>
        <g transform="matrix(1,0,0,1,-200.787,118.11)">
            <rect x="472.441" y="354.331" width="826.772" height="295.276" style="fill:none;stroke:black;stroke-width:4.17px;"/>
        </g>
        <g transform="matrix(1,0,0,1,-282.914,63.9129)">
            <text x="613.696px" y="480.217px" style="font-family:'Sylfaen', sans-serif;font-size:50px;">Orbit Vehicle Function(s)</text>
        </g>
    </g>
    <g id="Output" transform="matrix(1,0,0,1,-59.0551,0)">
        <g transform="matrix(1,0,0,1,85.6695,30.0603)">
            <text x="1511.66px" y="75.257px" style="font-family:'Sylfaen', sans-serif;font-size:50px;">Semimajor axis (+E)</text>
        </g>
        <g transform="matrix(1,0,0,1,130.393,11.3642)">
            <text x="1527.19px" y="152.911px" style="font-family:'Sylfaen', sans-serif;font-size:50px;">Eccentricity (+E)</text>
        </g>
        <g transform="matrix(1,0,0,1,152.585,73.4181)">
            <text x="1527.19px" y="152.911px" style="font-family:'Sylfaen', sans-serif;font-size:50px;">Inclination (+E)</text>
        </g>
        <g transform="matrix(1,0,0,1,49.0206,129.474)">
            <text x="1527.19px" y="152.911px" style="font-family:'Sylfaen', sans-serif;font-size:50px;">Ascending node (+E)</text>
        </g>
        <g transform="matrix(1,0,0,1,164.694,191.528)">
            <text x="1527.19px" y="152.911px" style="font-family:'Sylfaen', sans-serif;font-size:50px;">Perihelion (+E)</text>
        </g>
        <g transform="matrix(1,0,0,1,74.0206,247.585)">
            <text x="1527.19px" y="152.911px" style="font-family:'Sylfaen', sans-serif;font-size:50px;">Mean anomaly (+E)</text>
        </g>
        <g transform="matrix(1,0,0,1,350.461,307.275)">
            <text x="1527.19px" y="152.911px" style="font-family:'Sylfaen', sans-serif;font-size:50px;">Epoch</text>
        </g>
    </g>
    <g transform="matrix(1,0,0,1,18.8562,-57.4382)">
        <g id="Input">
            <g>
                <text x="38.343px" y="175.548px" style="font-family:'Sylfaen', sans-serif;font-size:50px;">Asteroid MPC</text>
                <text x="88.343px" y="225.548px" style="font-family:'Sylfaen', sans-serif;font-size:50px;">record</text>
            </g>
        </g>
    </g>
</svg>
